<svg xmlns="http://www.w3.org/2000/svg" xmlns:xlink="http://www.w3.org/1999/xlink" width="58" height="65" viewBox="0 0 58 65"><defs><path id="a" d="M57.769 20.551V.293H0v20.258h57.769z"/></defs><g fill="none" fill-rule="evenodd"><g transform="translate(0 26.899)"><mask id="b" fill="#fff"><use xlink:href="#a"/></mask><path fill="#263B77" d="M50.977.96l-.001-.001-.041-.02C50.613.784 48.388-.21 46.19.676L31.812 7.759c-.9.46-1.926.702-2.97.702a6.566 6.566 0 0 1-2.965-.7L12.113 1.01l-.786-.385c-1.702-.667-3.26-.17-3.944.13l-.37.183L.547 4.123c-.73.859-.73 2.002 0 2.86l27.08 13.284c.73.38 1.7.379 2.43-.001L57.223 6.884c.73-.858.73-2.002 0-2.86L50.978.96z" mask="url(#b)"/></g><path fill="#263B77" d="M50.977 45.308l-.001-.001-.041-.02c-.322-.155-2.547-1.148-4.745-.263l-14.378 7.083c-.9.46-1.926.702-2.97.702a6.566 6.566 0 0 1-2.965-.7l-13.764-6.751-.786-.385c-1.702-.667-3.26-.17-3.944.13l-.37.183L.547 48.47c-.73.859-.73 2.002 0 2.86l27.08 13.284c.73.38 1.7.379 2.43-.001l27.165-13.382c.73-.858.73-2.002 0-2.86l-6.245-3.064zM27.627 29.81c.365.19.79.286 1.215.286.425 0 .851-.095 1.215-.285l27.165-13.383c.73-.858.73-2.002 0-2.86L30.142.285A2.65 2.65 0 0 0 28.927 0c-.425 0-.85.095-1.215.285L.547 13.668c-.729.858-.73 2.002 0 2.86l27.08 13.283z"/></g></svg>