<svg xmlns="http://www.w3.org/2000/svg" xmlns:xlink="http://www.w3.org/1999/xlink" width="56" height="81" viewBox="0 0 56 81"><defs><path id="a" d="M.51.05h7.009v14.106H.51V.05z"/><path id="c" d="M11.949.06v12.631H.652V.06h11.297z"/><path id="e" d="M0 12.691V.06h11.298v12.631H0z"/></defs><g fill="none" fill-rule="evenodd"><path fill="#263B77" d="M42.64 64.905a.973.973 0 0 0-.818-.203l-3.88.872-3.43.736v.833c0 3.807-3.077 6.903-6.86 6.903-3.784 0-6.861-3.096-6.861-6.903v-.824l-3.23-.7v-.005l-4.055-.912a.974.974 0 0 0-.817.203c-.228.182-.467.482-.365.756.326.872 1.72 4.376 2.45 6.211.114.314.233.623.368.925.053.129.085.213.085.213l.01-.019c2.188 4.697 6.919 7.958 12.415 7.958 5.507 0 10.244-3.273 12.428-7.984l.021.045s2.456-6.153 2.903-7.349c.103-.274-.135-.574-.365-.756"/><g transform="translate(23.625 .83)"><mask id="b" fill="#fff"><use xlink:href="#a"/></mask><path fill="#263B77" d="M4.016 14.156c1.933 0 3.503-1.58 3.503-3.526V3.577C7.52 1.63 5.95.05 4.016.05 2.08.05.51 1.63.51 3.577v7.053c0 1.947 1.57 3.526 3.506 3.526" mask="url(#b)"/></g><g transform="translate(43.75 7.874)"><mask id="d" fill="#fff"><use xlink:href="#c"/></mask><path fill="#263B77" d="M10.59.797a3.492 3.492 0 0 0-4.917.631L1.384 7.007a3.542 3.542 0 0 0 .629 4.947 3.491 3.491 0 0 0 4.915-.631l4.289-5.58A3.542 3.542 0 0 0 10.59.797" mask="url(#d)"/></g><g transform="translate(0 7.874)"><mask id="f" fill="#fff"><use xlink:href="#e"/></mask><path fill="#263B77" d="M9.937 11.954a3.542 3.542 0 0 0 .629-4.947L6.276 1.43A3.49 3.49 0 0 0 1.36.797a3.541 3.541 0 0 0-.628 4.947l4.29 5.578a3.491 3.491 0 0 0 4.915.632" mask="url(#f)"/></g><path fill="#263B77" d="M41.908 43.458l-5.638 5.765a1.985 1.985 0 0 1-2.68.151l-5.666-4.627-4.488 4.491a1.986 1.986 0 0 1-2.678.125l-6.936-5.765a2.017 2.017 0 0 1-.268-2.828 1.988 1.988 0 0 1 2.81-.269l5.54 4.606 4.478-4.481a1.985 1.985 0 0 1 2.665-.136l5.65 4.615 4.366-4.464a1.986 1.986 0 0 1 2.822-.023c.787.778.796 2.05.023 2.84M27.651 20.591c-12.758 0-23.097 10.404-23.097 23.239 0 5.978 2.26 11.41 5.949 15.523 0 0 9.235 3.66 17.077 3.66 7.889 0 17.197-3.635 17.197-3.635a23.165 23.165 0 0 0 5.97-15.548c0-12.835-10.34-23.24-23.096-23.24"/></g></svg>