<svg xmlns="http://www.w3.org/2000/svg" xmlns:xlink="http://www.w3.org/1999/xlink" width="50" height="66" viewBox="0 0 50 66"><defs><path id="a" d="M0 65.936V.472h49.924v65.464H0z"/></defs><g fill="none" fill-rule="evenodd"><mask id="b" fill="#fff"><use xlink:href="#a"/></mask><path fill="#263B77" d="M34.622 34.885l-12.63 11.047a2.12 2.12 0 0 1-3.243-.549l-3.57-6.288A2.121 2.121 0 1 1 18.87 37l2.285 4.025 10.672-9.333a2.12 2.12 0 1 1 2.795 3.194M47.88.471H37.055c-.204 0-.53.185-.53.389v8.647c0 1.707-1.305 3.012-3.012 3.012h-17.1c-1.709 0-3.014-1.305-3.014-3.012V.861c0-.204-.326-.39-.529-.39H2.046C.818.472 0 1.29 0 2.519V63.89c0 1.227.818 2.045 2.046 2.045h45.833c1.227 0 2.045-.818 2.045-2.045V2.518c0-1.228-.818-2.046-2.045-2.046" mask="url(#b)"/></g></svg>