<svg xmlns="http://www.w3.org/2000/svg" xmlns:xlink="http://www.w3.org/1999/xlink" width="73" height="65" viewBox="0 0 73 65"><defs><path id="a" d="M.772.164h26.493v20.833H.772V.164z"/><path id="c" d="M.786.164H23.48v20.833H.786V.164z"/></defs><g fill="none" fill-rule="evenodd"><path fill="#263B77" d="M53.239 29.252l-11.59 33.376c-.98 3.135.762 2.493 2.15.74L70.733 29.28c1.105-1.4 2.182-3.24-.89-3.24h-13.05c-1.816.073-2.715.98-3.554 3.211"/><g transform="translate(45 -.164)"><mask id="b" fill="#fff"><use xlink:href="#a"/></mask><path fill="#263B77" d="M1.13 1.846l-.018.006L8.254 20.03c.275.559.654.917 1.567.966h15.986c2.05-.243 1.481-1.631 1.012-2.377L14.774 1.866A4.096 4.096 0 0 0 11.457.164H2.04C.48.164.601.517 1.13 1.846" mask="url(#b)"/></g><path fill="#263B77" d="M25.227 0h-9.402a4.094 4.094 0 0 0-3.316 1.702L.363 18.596c-.444.768-.833 2.009 1.095 2.237h15.987c1.06-.057 1.397-.532 1.696-1.251l7.027-17.888-.032-.012c.529-1.33.65-1.682-.91-1.682M1.187 28.821l27.565 34.884c1.385 1.552 2.917 1.888 1.737-1.474l.01.011-11.408-32.855-.008.004c-.856-2.339-1.756-3.276-3.611-3.35H2.423c-2.746 0-2.177 1.47-1.236 2.78m44.118-2.78H26.96c-2.615.203-2.838 1.578-1.918 4.607l10.535 30.34.001-.009c.244.787.814.923 1.112 0l.013.017 10.36-29.835c1.098-3.388 1.001-4.906-1.758-5.12"/><g transform="translate(24 -.164)"><mask id="d" fill="#fff"><use xlink:href="#c"/></mask><path fill="#263B77" d="M7.658 2.13l.002-.01-6.57 16.724h.003c-.603 1.592-.262 2.057.53 2.152h21.02c.79-.095 1.132-.56.53-2.151l.018-.003-6.598-16.796.014.085C16.11 1.008 16.015.163 15.003.163h-5.74c-1.013 0-1.109.845-1.605 1.967" mask="url(#d)"/></g></g></svg>