<svg width="60" height="60" viewBox="0 0 60 60" xmlns="http://www.w3.org/2000/svg"><g fill="none" fill-rule="evenodd"><circle fill="#F0F9FC" cx="30" cy="30" r="30"/><path d="M30.917 39.865c1.396 0 2.685-.215 3.813-.698V35.03c-.913.537-2.148.967-3.813.967-2.042 0-3.008-.967-3.008-2.74 0-1.88 1.61-3.33 3.437-4.673 4.888-3.653 7.413-5.371 7.413-10.85 0-2.686-1.934-7.735-9.132-7.735-2.9 0-5.478.913-7.627 2.632v4.727c2.041-1.988 4.458-3.492 7.627-3.492 4.835 0 4.942 3.6 4.942 4.029 0 3.76-2.149 5.21-6.07 7.95-3.276 2.363-4.78 4.726-4.78 7.412 0 3.975 2.847 6.607 7.198 6.607zm-3.922 6.5c0 1.557 1.29 2.685 2.686 2.685 1.397 0 2.686-1.128 2.686-2.686 0-1.557-1.29-2.685-2.686-2.685s-2.686 1.128-2.686 2.685z" fill="#777"/></g></svg>